<mxfile host="Electron" agent="Mozilla/5.0 (Windows NT 10.0; Win64; x64) AppleWebKit/537.36 (KHTML, like Gecko) draw.io/24.7.8 Chrome/128.0.6613.36 Electron/32.0.1 Safari/537.36" version="24.7.8">
  <diagram id="C5RBs43oDa-KdzZeNtuy" name="Page-1">
    <mxGraphModel dx="1434" dy="836" grid="1" gridSize="10" guides="1" tooltips="1" connect="1" arrows="1" fold="1" page="1" pageScale="1" pageWidth="827" pageHeight="1169" math="0" shadow="0">
      <root>
        <mxCell id="WIyWlLk6GJQsqaUBKTNV-0" />
        <mxCell id="WIyWlLk6GJQsqaUBKTNV-1" parent="WIyWlLk6GJQsqaUBKTNV-0" />
        <mxCell id="WIyWlLk6GJQsqaUBKTNV-2" value="" style="rounded=0;html=1;jettySize=auto;orthogonalLoop=1;fontSize=11;endArrow=block;endFill=0;endSize=8;strokeWidth=1;shadow=0;labelBackgroundColor=none;edgeStyle=orthogonalEdgeStyle;" parent="WIyWlLk6GJQsqaUBKTNV-1" source="WIyWlLk6GJQsqaUBKTNV-3" target="WIyWlLk6GJQsqaUBKTNV-6" edge="1">
          <mxGeometry relative="1" as="geometry" />
        </mxCell>
        <mxCell id="WIyWlLk6GJQsqaUBKTNV-3" value="&lt;font style=&quot;font-size: 14px;&quot;&gt;Début&lt;/font&gt;" style="rounded=1;whiteSpace=wrap;html=1;fontSize=12;glass=0;strokeWidth=1;shadow=0;fillColor=#dae8fc;strokeColor=#6c8ebf;" parent="WIyWlLk6GJQsqaUBKTNV-1" vertex="1">
          <mxGeometry x="125" y="20" width="190" height="40" as="geometry" />
        </mxCell>
        <mxCell id="WIyWlLk6GJQsqaUBKTNV-6" value="&lt;font style=&quot;font-size: 8px;&quot;&gt;Accéder à la page de connexion&lt;/font&gt;" style="rhombus;whiteSpace=wrap;html=1;shadow=0;fontFamily=Helvetica;fontSize=12;align=center;strokeWidth=1;spacing=6;spacingTop=-4;fillColor=#ffe6cc;strokeColor=#d79b00;" parent="WIyWlLk6GJQsqaUBKTNV-1" vertex="1">
          <mxGeometry x="160" y="120" width="120" height="120" as="geometry" />
        </mxCell>
        <mxCell id="WIyWlLk6GJQsqaUBKTNV-8" value="No" style="rounded=0;html=1;jettySize=auto;orthogonalLoop=1;fontSize=11;endArrow=block;endFill=0;endSize=8;strokeWidth=1;shadow=0;labelBackgroundColor=none;edgeStyle=orthogonalEdgeStyle;" parent="WIyWlLk6GJQsqaUBKTNV-1" source="8gCv4Cx4uOkbRDqvgKm4-29" target="WIyWlLk6GJQsqaUBKTNV-11" edge="1">
          <mxGeometry x="0.3333" y="20" relative="1" as="geometry">
            <mxPoint as="offset" />
            <mxPoint x="215" y="490" as="sourcePoint" />
          </mxGeometry>
        </mxCell>
        <mxCell id="WIyWlLk6GJQsqaUBKTNV-9" value="" style="edgeStyle=orthogonalEdgeStyle;rounded=0;html=1;jettySize=auto;orthogonalLoop=1;fontSize=11;endArrow=block;endFill=0;endSize=8;strokeWidth=1;shadow=0;labelBackgroundColor=none;" parent="WIyWlLk6GJQsqaUBKTNV-1" edge="1">
          <mxGeometry x="-0.0141" y="-90" relative="1" as="geometry">
            <mxPoint as="offset" />
            <mxPoint x="290" y="499.5" as="sourcePoint" />
            <mxPoint x="640" y="590" as="targetPoint" />
          </mxGeometry>
        </mxCell>
        <mxCell id="WIyWlLk6GJQsqaUBKTNV-11" value="Fin" style="rounded=1;whiteSpace=wrap;html=1;fontSize=12;glass=0;strokeWidth=1;shadow=0;fillColor=#dae8fc;strokeColor=#6c8ebf;" parent="WIyWlLk6GJQsqaUBKTNV-1" vertex="1">
          <mxGeometry x="160" y="1800" width="120" height="40" as="geometry" />
        </mxCell>
        <mxCell id="8gCv4Cx4uOkbRDqvgKm4-1" value="" style="rounded=0;html=1;jettySize=auto;orthogonalLoop=1;fontSize=11;endArrow=block;endFill=0;endSize=8;strokeWidth=1;shadow=0;labelBackgroundColor=none;edgeStyle=orthogonalEdgeStyle;" edge="1" parent="WIyWlLk6GJQsqaUBKTNV-1" source="WIyWlLk6GJQsqaUBKTNV-6" target="8gCv4Cx4uOkbRDqvgKm4-0">
          <mxGeometry y="20" relative="1" as="geometry">
            <mxPoint as="offset" />
            <mxPoint x="215" y="220" as="sourcePoint" />
            <mxPoint x="215" y="410" as="targetPoint" />
            <Array as="points" />
          </mxGeometry>
        </mxCell>
        <mxCell id="8gCv4Cx4uOkbRDqvgKm4-0" value="&lt;font style=&quot;font-size: 8px;&quot;&gt;Saisir email et mot de passe&lt;/font&gt;" style="rhombus;whiteSpace=wrap;html=1;shadow=0;fontFamily=Helvetica;fontSize=12;align=center;strokeWidth=1;spacing=6;spacingTop=-4;fillColor=#ffe6cc;strokeColor=#d79b00;" vertex="1" parent="WIyWlLk6GJQsqaUBKTNV-1">
          <mxGeometry x="160" y="280" width="120" height="120" as="geometry" />
        </mxCell>
        <mxCell id="8gCv4Cx4uOkbRDqvgKm4-2" value="&lt;font style=&quot;font-size: 8px;&quot;&gt;Valider les identifiants&lt;/font&gt;" style="rhombus;whiteSpace=wrap;html=1;shadow=0;fontFamily=Helvetica;fontSize=12;align=center;strokeWidth=1;spacing=6;spacingTop=-4;fillColor=#ffe6cc;strokeColor=#d79b00;" vertex="1" parent="WIyWlLk6GJQsqaUBKTNV-1">
          <mxGeometry x="160" y="440" width="120" height="120" as="geometry" />
        </mxCell>
        <mxCell id="8gCv4Cx4uOkbRDqvgKm4-4" value="" style="endArrow=classic;html=1;rounded=0;exitX=0.5;exitY=1;exitDx=0;exitDy=0;" edge="1" parent="WIyWlLk6GJQsqaUBKTNV-1" source="8gCv4Cx4uOkbRDqvgKm4-0">
          <mxGeometry width="50" height="50" relative="1" as="geometry">
            <mxPoint x="180" y="450" as="sourcePoint" />
            <mxPoint x="220" y="440" as="targetPoint" />
          </mxGeometry>
        </mxCell>
        <mxCell id="8gCv4Cx4uOkbRDqvgKm4-13" value="" style="edgeStyle=orthogonalEdgeStyle;rounded=0;orthogonalLoop=1;jettySize=auto;html=1;" edge="1" parent="WIyWlLk6GJQsqaUBKTNV-1" source="8gCv4Cx4uOkbRDqvgKm4-7" target="8gCv4Cx4uOkbRDqvgKm4-9">
          <mxGeometry relative="1" as="geometry" />
        </mxCell>
        <mxCell id="8gCv4Cx4uOkbRDqvgKm4-15" value="" style="edgeStyle=orthogonalEdgeStyle;rounded=0;orthogonalLoop=1;jettySize=auto;html=1;" edge="1" parent="WIyWlLk6GJQsqaUBKTNV-1" source="8gCv4Cx4uOkbRDqvgKm4-7" target="8gCv4Cx4uOkbRDqvgKm4-2">
          <mxGeometry relative="1" as="geometry" />
        </mxCell>
        <mxCell id="8gCv4Cx4uOkbRDqvgKm4-7" value="Identifiants valides" style="rounded=0;whiteSpace=wrap;html=1;fillColor=#f8cecc;strokeColor=#b85450;" vertex="1" parent="WIyWlLk6GJQsqaUBKTNV-1">
          <mxGeometry x="135" y="600" width="170" height="40" as="geometry" />
        </mxCell>
        <mxCell id="8gCv4Cx4uOkbRDqvgKm4-8" value="Identifiants invalides" style="rounded=0;whiteSpace=wrap;html=1;fillColor=#f8cecc;strokeColor=#b85450;" vertex="1" parent="WIyWlLk6GJQsqaUBKTNV-1">
          <mxGeometry x="560" y="600" width="170" height="40" as="geometry" />
        </mxCell>
        <mxCell id="8gCv4Cx4uOkbRDqvgKm4-9" value="&lt;font style=&quot;font-size: 8px;&quot;&gt;Accéder à l&#39;espace utilisateur&lt;/font&gt;" style="rhombus;whiteSpace=wrap;html=1;shadow=0;fontFamily=Helvetica;fontSize=12;align=center;strokeWidth=1;spacing=6;spacingTop=-4;fillColor=#ffe6cc;strokeColor=#d79b00;" vertex="1" parent="WIyWlLk6GJQsqaUBKTNV-1">
          <mxGeometry x="160" y="690" width="120" height="120" as="geometry" />
        </mxCell>
        <mxCell id="8gCv4Cx4uOkbRDqvgKm4-11" value="" style="edgeStyle=orthogonalEdgeStyle;rounded=0;html=1;jettySize=auto;orthogonalLoop=1;fontSize=11;endArrow=block;endFill=0;endSize=8;strokeWidth=1;shadow=0;labelBackgroundColor=none;" edge="1" parent="WIyWlLk6GJQsqaUBKTNV-1">
          <mxGeometry x="-0.0141" y="-90" relative="1" as="geometry">
            <mxPoint as="offset" />
            <mxPoint x="640" y="640" as="sourcePoint" />
            <mxPoint x="640" y="680" as="targetPoint" />
          </mxGeometry>
        </mxCell>
        <mxCell id="8gCv4Cx4uOkbRDqvgKm4-16" value="&lt;font style=&quot;font-size: 8px;&quot;&gt;Afficher le message d&#39;erreur&lt;/font&gt;" style="rhombus;whiteSpace=wrap;html=1;shadow=0;fontFamily=Helvetica;fontSize=12;align=center;strokeWidth=1;spacing=6;spacingTop=-4;fillColor=#ffe6cc;strokeColor=#d79b00;" vertex="1" parent="WIyWlLk6GJQsqaUBKTNV-1">
          <mxGeometry x="580" y="680" width="120" height="120" as="geometry" />
        </mxCell>
        <mxCell id="8gCv4Cx4uOkbRDqvgKm4-18" value="" style="rounded=0;html=1;jettySize=auto;orthogonalLoop=1;fontSize=11;endArrow=block;endFill=0;endSize=8;strokeWidth=1;shadow=0;labelBackgroundColor=none;edgeStyle=orthogonalEdgeStyle;" edge="1" parent="WIyWlLk6GJQsqaUBKTNV-1" source="8gCv4Cx4uOkbRDqvgKm4-9" target="8gCv4Cx4uOkbRDqvgKm4-17">
          <mxGeometry x="0.3333" y="20" relative="1" as="geometry">
            <mxPoint as="offset" />
            <mxPoint x="220" y="810" as="sourcePoint" />
            <mxPoint x="220" y="1600" as="targetPoint" />
          </mxGeometry>
        </mxCell>
        <mxCell id="8gCv4Cx4uOkbRDqvgKm4-17" value="&lt;font style=&quot;font-size: 8px;&quot;&gt;Accéder au formulaie de création de ticket&lt;/font&gt;" style="rhombus;whiteSpace=wrap;html=1;shadow=0;fontFamily=Helvetica;fontSize=12;align=center;strokeWidth=1;spacing=6;spacingTop=-4;fillColor=#ffe6cc;strokeColor=#d79b00;" vertex="1" parent="WIyWlLk6GJQsqaUBKTNV-1">
          <mxGeometry x="160" y="850" width="120" height="120" as="geometry" />
        </mxCell>
        <mxCell id="8gCv4Cx4uOkbRDqvgKm4-19" value="&lt;font style=&quot;font-size: 8px;&quot;&gt;Remplor le formulaire de création de ticket&lt;/font&gt;" style="rhombus;whiteSpace=wrap;html=1;shadow=0;fontFamily=Helvetica;fontSize=12;align=center;strokeWidth=1;spacing=6;spacingTop=-4;fillColor=#ffe6cc;strokeColor=#d79b00;" vertex="1" parent="WIyWlLk6GJQsqaUBKTNV-1">
          <mxGeometry x="160" y="990" width="120" height="120" as="geometry" />
        </mxCell>
        <mxCell id="8gCv4Cx4uOkbRDqvgKm4-21" value="" style="rounded=0;html=1;jettySize=auto;orthogonalLoop=1;fontSize=11;endArrow=block;endFill=0;endSize=8;strokeWidth=1;shadow=0;labelBackgroundColor=none;edgeStyle=orthogonalEdgeStyle;" edge="1" parent="WIyWlLk6GJQsqaUBKTNV-1" source="8gCv4Cx4uOkbRDqvgKm4-17" target="8gCv4Cx4uOkbRDqvgKm4-20">
          <mxGeometry x="0.3333" y="20" relative="1" as="geometry">
            <mxPoint as="offset" />
            <mxPoint x="220" y="970" as="sourcePoint" />
            <mxPoint x="220" y="1600" as="targetPoint" />
          </mxGeometry>
        </mxCell>
        <mxCell id="8gCv4Cx4uOkbRDqvgKm4-20" value="&lt;font style=&quot;font-size: 8px;&quot;&gt;Soumettre le formulaire&lt;/font&gt;" style="rhombus;whiteSpace=wrap;html=1;shadow=0;fontFamily=Helvetica;fontSize=12;align=center;strokeWidth=1;spacing=6;spacingTop=-4;fillColor=#ffe6cc;strokeColor=#d79b00;" vertex="1" parent="WIyWlLk6GJQsqaUBKTNV-1">
          <mxGeometry x="160" y="1140" width="120" height="120" as="geometry" />
        </mxCell>
        <mxCell id="8gCv4Cx4uOkbRDqvgKm4-22" value="&lt;font style=&quot;font-size: 8px;&quot;&gt;Valider les données côté serveur&lt;/font&gt;" style="rhombus;whiteSpace=wrap;html=1;shadow=0;fontFamily=Helvetica;fontSize=12;align=center;strokeWidth=1;spacing=6;spacingTop=-4;fillColor=#ffe6cc;strokeColor=#d79b00;" vertex="1" parent="WIyWlLk6GJQsqaUBKTNV-1">
          <mxGeometry x="160" y="1280" width="120" height="120" as="geometry" />
        </mxCell>
        <mxCell id="8gCv4Cx4uOkbRDqvgKm4-24" value="Données valides" style="rounded=0;whiteSpace=wrap;html=1;fillColor=#f8cecc;strokeColor=#b85450;" vertex="1" parent="WIyWlLk6GJQsqaUBKTNV-1">
          <mxGeometry x="135" y="1440" width="170" height="40" as="geometry" />
        </mxCell>
        <mxCell id="8gCv4Cx4uOkbRDqvgKm4-25" value="Données invalides" style="rounded=0;whiteSpace=wrap;html=1;fillColor=#f8cecc;strokeColor=#b85450;" vertex="1" parent="WIyWlLk6GJQsqaUBKTNV-1">
          <mxGeometry x="560" y="1440" width="170" height="40" as="geometry" />
        </mxCell>
        <mxCell id="8gCv4Cx4uOkbRDqvgKm4-26" value="" style="edgeStyle=orthogonalEdgeStyle;rounded=0;html=1;jettySize=auto;orthogonalLoop=1;fontSize=11;endArrow=block;endFill=0;endSize=8;strokeWidth=1;shadow=0;labelBackgroundColor=none;" edge="1" parent="WIyWlLk6GJQsqaUBKTNV-1">
          <mxGeometry x="-0.0141" y="-90" relative="1" as="geometry">
            <mxPoint as="offset" />
            <mxPoint x="290" y="1340" as="sourcePoint" />
            <mxPoint x="640" y="1430.5" as="targetPoint" />
          </mxGeometry>
        </mxCell>
        <mxCell id="8gCv4Cx4uOkbRDqvgKm4-27" value="&lt;font style=&quot;font-size: 8px;&quot;&gt;Enregistrer le ticket dans la base de données&lt;/font&gt;" style="rhombus;whiteSpace=wrap;html=1;shadow=0;fontFamily=Helvetica;fontSize=12;align=center;strokeWidth=1;spacing=6;spacingTop=-4;fillColor=#ffe6cc;strokeColor=#d79b00;" vertex="1" parent="WIyWlLk6GJQsqaUBKTNV-1">
          <mxGeometry x="84" y="1520" width="660" height="120" as="geometry" />
        </mxCell>
        <mxCell id="8gCv4Cx4uOkbRDqvgKm4-28" value="&lt;font style=&quot;font-size: 8px;&quot;&gt;Afficher le message d&#39;erreur&lt;/font&gt;" style="rhombus;whiteSpace=wrap;html=1;shadow=0;fontFamily=Helvetica;fontSize=12;align=center;strokeWidth=1;spacing=6;spacingTop=-4;fillColor=#ffe6cc;strokeColor=#d79b00;" vertex="1" parent="WIyWlLk6GJQsqaUBKTNV-1">
          <mxGeometry x="760" y="1520" width="120" height="120" as="geometry" />
        </mxCell>
        <mxCell id="8gCv4Cx4uOkbRDqvgKm4-30" value="" style="rounded=0;html=1;jettySize=auto;orthogonalLoop=1;fontSize=11;endArrow=block;endFill=0;endSize=8;strokeWidth=1;shadow=0;labelBackgroundColor=none;edgeStyle=orthogonalEdgeStyle;" edge="1" parent="WIyWlLk6GJQsqaUBKTNV-1" source="8gCv4Cx4uOkbRDqvgKm4-20" target="8gCv4Cx4uOkbRDqvgKm4-29">
          <mxGeometry x="0.3333" y="20" relative="1" as="geometry">
            <mxPoint as="offset" />
            <mxPoint x="220" y="1260" as="sourcePoint" />
            <mxPoint x="220" y="1960" as="targetPoint" />
          </mxGeometry>
        </mxCell>
        <mxCell id="8gCv4Cx4uOkbRDqvgKm4-29" value="&lt;font style=&quot;font-size: 8px;&quot;&gt;Confirmer la création du ticket&lt;/font&gt;" style="rhombus;whiteSpace=wrap;html=1;shadow=0;fontFamily=Helvetica;fontSize=12;align=center;strokeWidth=1;spacing=6;spacingTop=-4;fillColor=#ffe6cc;strokeColor=#d79b00;" vertex="1" parent="WIyWlLk6GJQsqaUBKTNV-1">
          <mxGeometry x="160" y="1640" width="120" height="120" as="geometry" />
        </mxCell>
        <mxCell id="8gCv4Cx4uOkbRDqvgKm4-31" value="&lt;font style=&quot;font-size: 8px;&quot;&gt;Retour au formulaire&lt;/font&gt;" style="rhombus;whiteSpace=wrap;html=1;shadow=0;fontFamily=Helvetica;fontSize=12;align=center;strokeWidth=1;spacing=6;spacingTop=-4;fillColor=#ffe6cc;strokeColor=#d79b00;" vertex="1" parent="WIyWlLk6GJQsqaUBKTNV-1">
          <mxGeometry x="680" y="1640" width="120" height="120" as="geometry" />
        </mxCell>
        <mxCell id="8gCv4Cx4uOkbRDqvgKm4-32" value="&lt;font style=&quot;font-size: 18px;&quot;&gt;&lt;b&gt;Exemple de Diagramme de Flux pour la création d&#39;un ticket.&lt;/b&gt;&lt;/font&gt;" style="text;html=1;align=center;verticalAlign=middle;resizable=0;points=[];autosize=1;strokeColor=none;fillColor=none;" vertex="1" parent="WIyWlLk6GJQsqaUBKTNV-1">
          <mxGeometry x="365" y="20" width="530" height="40" as="geometry" />
        </mxCell>
      </root>
    </mxGraphModel>
  </diagram>
</mxfile>
